<svg width="46" height="46" viewBox="0 0 46 46" fill="none" xmlns="http://www.w3.org/2000/svg">
<g opacity="0.6">
<path d="M45.3576 8.64763C44.9686 8.48642 44.5209 8.57561 44.2234 8.87316L25.18 27.9165C25.0799 28.0166 25.0044 28.1322 24.9536 28.2554C24.9038 28.3759 24.876 28.5079 24.8752 28.6462C24.8752 28.6467 24.8752 28.6472 24.8752 28.6476C24.8752 28.6478 24.8752 28.6479 24.8752 28.6481C24.8752 28.6485 24.8752 28.6488 24.8752 28.6492C24.8752 28.6495 24.8752 28.6497 24.8752 28.65C24.8752 28.6503 24.8752 28.6504 24.8752 28.6508C24.8752 28.6513 24.8752 28.6518 24.8752 28.6524C24.8752 35.6987 19.1427 41.4313 12.0963 41.4313C6.57405 41.4313 2.08145 36.9386 2.08145 31.4164C2.08145 27.1133 5.58224 23.6126 9.88521 23.6126C13.2129 23.6126 15.9201 26.3198 15.9201 29.6475C15.9201 32.1948 13.8477 34.2672 11.3003 34.2672C9.37713 34.2672 7.81261 32.7026 7.81261 30.7796C7.81261 29.3558 8.97094 28.1975 10.3946 28.1975C10.9693 28.1975 11.4354 27.7316 11.4354 27.1568C11.4354 26.582 10.9693 26.1161 10.3946 26.1161C7.82323 26.1161 5.73116 28.2081 5.73116 30.7796C5.73116 33.8504 8.22942 36.3487 11.3003 36.3487C13.1162 36.3487 14.7657 35.6227 15.9738 34.4456C15.996 34.4268 16.0177 34.4069 16.0387 34.386L35.0822 15.3426C36.3478 14.0769 37.0449 12.3941 37.0449 10.6042C37.0449 6.12887 33.4039 2.48779 28.9286 2.48779C26.2882 2.48779 23.8057 3.51603 21.9387 5.38309L2.89529 24.4265C2.87042 24.4513 2.847 24.4772 2.82515 24.5039C1.0785 26.2876 0 28.7286 0 31.4164C0 38.0864 5.42644 43.5127 12.0963 43.5127C16.1748 43.5127 19.8745 41.8615 22.5623 39.192C22.5939 39.1671 22.6244 39.14 22.6535 39.1108L41.6475 20.1169C44.4542 17.3102 46 13.5784 46 9.60915C46 9.18818 45.7464 8.80873 45.3576 8.64763ZM23.4105 6.85488C24.8843 5.38101 26.844 4.56924 28.9285 4.56924C32.2562 4.56924 34.9633 7.27648 34.9633 10.6042C34.9633 11.8382 34.4828 12.9983 33.6102 13.8709L17.9999 29.4812C17.9112 25.0821 14.3052 21.5311 9.88521 21.5311C9.47007 21.5311 9.06034 21.5569 8.65851 21.6068L23.4105 6.85488ZM40.1757 18.6451L26.498 32.3228C26.7628 31.2844 26.9179 30.202 26.9504 29.0899L43.6074 12.4328C43.0834 14.7678 41.9091 16.9117 40.1757 18.6451Z" fill="#00A54C"/>
</g>
</svg>
