<?xml version="1.0" encoding="UTF-8" standalone="no"?>
<svg
   width="476"
   height="476"
   viewBox="0 0 476 476"
   fill="none"
   version="1.1"
   id="svg181"
   sodipodi:docname="1.svg"
   inkscape:version="1.1.2 (0a00cf5339, 2022-02-04, custom)"
   xmlns:inkscape="http://www.inkscape.org/namespaces/inkscape"
   xmlns:sodipodi="http://sodipodi.sourceforge.net/DTD/sodipodi-0.dtd"
   xmlns="http://www.w3.org/2000/svg"
   xmlns:svg="http://www.w3.org/2000/svg">
  <sodipodi:namedview
     id="namedview183"
     pagecolor="#505050"
     bordercolor="#eeeeee"
     borderopacity="1"
     inkscape:pageshadow="0"
     inkscape:pageopacity="0"
     inkscape:pagecheckerboard="0"
     showgrid="false"
     inkscape:zoom="1.0420168"
     inkscape:cx="344.04436"
     inkscape:cy="238"
     inkscape:window-width="1366"
     inkscape:window-height="705"
     inkscape:window-x="-8"
     inkscape:window-y="-8"
     inkscape:window-maximized="1"
     inkscape:current-layer="svg181" />
  <path
     opacity="0.1"
     d="M237.982 0L237.982 177.362"
     stroke="white"
     id="path97" />
  <path
     opacity="0.1"
     d="M237.982 298.638L237.982 476"
     stroke="white"
     id="path99" />
  <path
     opacity="0.1"
     d="M476 238L298.638 238"
     stroke="white"
     id="path101" />
  <path
     opacity="0.1"
     d="M177.362 238L-2.75028e-05 238"
     stroke="white"
     id="path103" />
  <g
     clip-path="url(#clip0)"
     id="g113">
    <path
       d="M123.708 313.733H120.524L121.484 302.892C121.485 302.872 121.486 302.853 121.486 302.834C121.486 302.832 121.486 302.83 121.486 302.829C121.486 302.828 121.486 302.828 121.486 302.828C121.486 302.533 121.305 302.273 121.039 302.16C121.037 302.159 121.035 302.158 121.033 302.157C121.016 302.15 120.999 302.144 120.982 302.138C120.975 302.136 120.969 302.134 120.963 302.132C120.949 302.128 120.934 302.124 120.92 302.121C120.91 302.119 120.9 302.116 120.89 302.114C120.878 302.111 120.865 302.11 120.852 302.108C120.84 302.106 120.828 302.104 120.816 302.103C120.814 302.103 120.812 302.103 120.81 302.102C120.797 302.101 120.784 302.101 120.771 302.101C120.762 302.101 120.754 302.1 120.745 302.1H120.736C120.735 302.1 120.734 302.1 120.733 302.1H105.585C105.176 302.1 104.844 302.426 104.844 302.829C104.844 303.23 105.176 303.558 105.585 303.558H119.938L118.463 320.22C118.463 320.221 118.463 320.222 118.463 320.224L118.091 324.428H92.3511L92.7817 320.053H97.6826C98.0918 320.053 98.4234 319.726 98.4234 319.324C98.4234 318.921 98.0918 318.594 97.6826 318.594H92.9253L93.8343 309.359H101.635C102.044 309.359 102.375 309.032 102.375 308.629C102.375 308.227 102.044 307.9 101.635 307.9H93.9779L94.4054 303.558H105.715C106.123 303.558 106.455 303.23 106.455 302.829C106.455 302.426 106.123 302.1 105.715 302.1H93.7331C93.7327 302.1 93.7324 302.1 93.732 302.1C93.384 302.1 93.0822 302.341 93.0092 302.675C93.0087 302.677 93.0078 302.68 93.0073 302.682C93.0036 302.7 93.0011 302.719 92.9987 302.738C92.998 302.744 92.9967 302.749 92.9961 302.755C92.996 302.756 92.9957 302.757 92.9956 302.758L92.4895 307.9H83.5096C83.1004 307.9 82.7689 308.227 82.7689 308.629C82.7689 309.032 83.1004 309.359 83.5096 309.359H92.3459L91.4368 318.594H88.7939C88.3847 318.594 88.0531 318.921 88.0531 319.324C88.0531 319.726 88.3847 320.053 88.7939 320.053H91.2933L90.7983 325.081C90.7982 325.082 90.7982 325.083 90.7981 325.084L90.0328 332.86C90.0327 332.86 90.0326 332.861 90.0325 332.862L90.0322 332.865C90.0312 332.875 90.0313 332.885 90.0307 332.895C90.03 332.909 90.0286 332.922 90.0286 332.935C90.0286 332.936 90.0287 332.936 90.0287 332.937C90.0287 332.956 90.0301 332.974 90.0315 332.993C90.0321 332.999 90.0319 333.005 90.0326 333.011C90.0345 333.029 90.0378 333.048 90.0412 333.067C90.0422 333.072 90.0427 333.078 90.0438 333.083C90.0467 333.097 90.0507 333.11 90.0545 333.124C90.057 333.134 90.0591 333.144 90.0621 333.153C90.063 333.156 90.0642 333.158 90.0649 333.161C90.1008 333.269 90.1616 333.367 90.2411 333.446C90.2425 333.448 90.2437 333.449 90.2452 333.451C90.2531 333.459 90.2617 333.466 90.27 333.473C90.3211 333.519 90.3787 333.558 90.4418 333.589C90.455 333.595 90.4679 333.602 90.4814 333.607C90.4854 333.609 90.4898 333.61 90.4939 333.612C90.5125 333.619 90.5311 333.626 90.5504 333.632C90.5522 333.633 90.5539 333.633 90.5556 333.633C90.5776 333.64 90.5997 333.646 90.6223 333.65C90.6253 333.651 90.6283 333.651 90.6312 333.651C90.6527 333.655 90.6743 333.659 90.6964 333.661C90.6969 333.661 90.6973 333.661 90.6978 333.661C90.7221 333.664 90.7462 333.665 90.7701 333.665C90.7704 333.665 90.7707 333.665 90.7711 333.665H94.0688C94.433 336.382 96.7999 338.487 99.6588 338.487C102.517 338.487 104.884 336.382 105.249 333.665H117.13C117.494 336.382 119.861 338.487 122.72 338.487C125.579 338.487 127.946 336.382 128.31 333.665H131.609C131.609 333.665 131.61 333.665 131.61 333.665C131.635 333.665 131.659 333.663 131.683 333.661C131.688 333.66 131.692 333.66 131.696 333.659C131.715 333.657 131.735 333.654 131.753 333.651C131.761 333.649 131.769 333.647 131.777 333.645C131.792 333.642 131.806 333.638 131.821 333.634C131.83 333.631 131.84 333.628 131.849 333.625C131.861 333.621 131.873 333.616 131.885 333.612C131.896 333.608 131.905 333.603 131.915 333.599C131.926 333.594 131.937 333.589 131.948 333.583C131.958 333.578 131.967 333.573 131.977 333.568C131.987 333.562 131.997 333.556 132.007 333.55C132.017 333.544 132.026 333.538 132.035 333.532C132.045 333.525 132.054 333.517 132.064 333.51C132.072 333.504 132.081 333.498 132.088 333.491C132.099 333.482 132.108 333.474 132.118 333.465C132.125 333.458 132.132 333.452 132.138 333.445C132.148 333.435 132.158 333.424 132.168 333.413C132.173 333.407 132.179 333.402 132.184 333.396C132.195 333.382 132.204 333.369 132.214 333.355C132.218 333.35 132.221 333.346 132.225 333.341C132.237 333.323 132.248 333.305 132.259 333.286C132.259 333.285 132.26 333.284 132.261 333.282C132.272 333.262 132.282 333.242 132.291 333.22C132.294 333.214 132.296 333.208 132.298 333.202C132.304 333.187 132.31 333.171 132.315 333.156C132.318 333.146 132.321 333.135 132.324 333.125C132.327 333.113 132.33 333.101 132.333 333.089C132.336 333.078 132.337 333.066 132.339 333.055C132.341 333.045 132.343 333.036 132.344 333.026C132.376 332.778 132.956 328.197 133.215 325.235C133.215 325.232 133.215 325.229 133.215 325.226C133.29 324.372 133.338 323.653 133.338 323.213C133.338 317.986 129.018 313.733 123.708 313.733ZM120.395 315.192H123.426L123.039 319.567H120.008L120.395 315.192ZM99.659 337.029C97.3659 337.029 95.5003 335.192 95.5003 332.935C95.5003 330.678 97.366 328.842 99.659 328.842C101.952 328.842 103.818 330.678 103.818 332.935C103.818 335.192 101.952 337.029 99.659 337.029ZM122.72 337.029C120.427 337.029 118.562 335.192 118.562 332.935C118.562 330.678 120.427 328.842 122.72 328.842C125.013 328.842 126.879 330.678 126.879 332.935C126.879 335.192 125.013 337.029 122.72 337.029ZM130.954 332.206H128.31C127.946 329.488 125.579 327.383 122.72 327.383C119.862 327.383 117.494 329.488 117.13 332.206H105.249C104.885 329.488 102.518 327.383 99.659 327.383C96.8001 327.383 94.433 329.488 94.0689 332.206H91.5855L92.2076 325.886H118.77V325.886C118.77 325.886 118.77 325.886 118.771 325.886C118.796 325.886 118.82 325.885 118.845 325.882C118.849 325.882 118.854 325.881 118.858 325.88C118.877 325.878 118.897 325.875 118.916 325.872C118.924 325.87 118.932 325.868 118.94 325.866C118.955 325.862 118.97 325.859 118.984 325.855C118.994 325.852 119.003 325.848 119.013 325.845C119.025 325.841 119.038 325.837 119.05 325.832C119.06 325.827 119.07 325.823 119.08 325.818C119.091 325.813 119.102 325.808 119.113 325.803C119.123 325.798 119.133 325.792 119.143 325.786C119.153 325.78 119.163 325.774 119.173 325.768C119.182 325.762 119.191 325.756 119.201 325.749C119.21 325.743 119.22 325.736 119.229 325.728C119.238 325.722 119.246 325.715 119.255 325.708C119.264 325.7 119.273 325.691 119.282 325.683C119.29 325.676 119.297 325.669 119.304 325.661C119.313 325.652 119.322 325.642 119.33 325.633C119.337 325.625 119.343 325.618 119.35 325.61C119.358 325.6 119.366 325.589 119.373 325.579C119.379 325.571 119.385 325.563 119.39 325.554C119.398 325.543 119.405 325.532 119.411 325.521C119.416 325.512 119.421 325.504 119.426 325.495C119.432 325.483 119.437 325.472 119.443 325.46C119.447 325.451 119.452 325.441 119.456 325.432C119.461 325.42 119.465 325.408 119.469 325.397C119.473 325.386 119.476 325.376 119.48 325.365C119.483 325.354 119.486 325.342 119.489 325.331C119.491 325.319 119.495 325.308 119.497 325.296C119.499 325.284 119.501 325.273 119.502 325.261C119.504 325.249 119.506 325.237 119.507 325.225C119.508 325.223 119.508 325.222 119.508 325.22L119.879 321.025H123.708C125.977 321.025 127.001 322.182 128.085 323.408C128.979 324.419 129.977 325.547 131.674 325.823C131.458 328.065 131.11 330.945 130.954 332.206ZM131.8 324.361C130.7 324.14 130.022 323.379 129.202 322.451C128.176 321.29 126.923 319.874 124.522 319.61L124.905 315.279C128.832 315.851 131.856 319.19 131.856 323.213C131.856 323.486 131.836 323.883 131.8 324.361Z"
       fill="#00A54C"
       id="path105" />
    <path
       d="M99.659 330.261C98.1614 330.261 96.9429 331.461 96.9429 332.935C96.9429 334.409 98.1614 335.609 99.659 335.609C101.157 335.609 102.375 334.409 102.375 332.935C102.375 331.461 101.157 330.261 99.659 330.261ZM99.659 334.15C98.9782 334.15 98.4244 333.605 98.4244 332.935C98.4244 332.265 98.9782 331.72 99.659 331.72C100.34 331.72 100.894 332.265 100.894 332.935C100.894 333.605 100.34 334.15 99.659 334.15Z"
       fill="#00A54C"
       id="path107" />
    <path
       d="M122.72 330.261C121.222 330.261 120.004 331.461 120.004 332.935C120.004 334.409 121.222 335.609 122.72 335.609C124.218 335.609 125.436 334.409 125.436 332.935C125.436 331.461 124.218 330.261 122.72 330.261ZM122.72 334.15C122.039 334.15 121.486 333.605 121.486 332.935C121.486 332.265 122.039 331.72 122.72 331.72C123.401 331.72 123.955 332.265 123.955 332.935C123.955 333.605 123.401 334.15 122.72 334.15Z"
       fill="#00A54C"
       id="path109" />
    <path
       d="M89.7814 313.734H86.16C85.7508 313.734 85.4192 314.06 85.4192 314.463C85.4192 314.865 85.7508 315.192 86.16 315.192H89.7814C90.1906 315.192 90.5222 314.865 90.5222 314.463C90.5222 314.06 90.1906 313.734 89.7814 313.734Z"
       fill="#00A54C"
       id="path111" />
  </g>
  <g
     clip-path="url(#clip1)"
     id="g125">
    <path
       d="M375.348 334.705L373.867 330.33C373.768 330.028 373.481 329.834 373.165 329.834H370.331C369.926 329.834 369.59 330.165 369.59 330.563C369.59 330.962 369.926 331.292 370.331 331.292H372.632L373.62 334.209H354.923L355.911 331.292H358.212C358.617 331.292 358.953 330.962 358.953 330.563C358.953 330.165 358.617 329.834 358.212 329.834H355.377C355.061 329.834 354.775 330.038 354.676 330.33L353.195 334.705C353.116 334.929 353.155 335.172 353.293 335.366C353.432 335.56 353.659 335.667 353.896 335.667H374.637C374.874 335.667 375.101 335.551 375.239 335.366C375.388 335.172 375.417 334.929 375.348 334.705Z"
       fill="#00A54C"
       id="path117" />
    <path
       d="M388.731 338.993L381.324 324.409C381.314 324.389 381.304 324.37 381.284 324.351C381.284 324.341 381.274 324.331 381.274 324.331C381.136 324.137 380.909 324.01 380.662 324.01H376.217H369.59L368.701 325.469H375.763L382.572 339.226C382.701 339.479 382.957 339.634 383.234 339.634C383.352 339.634 383.461 339.605 383.57 339.556C383.747 339.469 383.876 339.323 383.945 339.138C384.004 338.954 383.994 338.759 383.905 338.584L377.412 325.459H380.198L386.776 338.584H347.924L350.014 333.801C350.133 333.577 350.113 333.305 349.985 333.091C349.856 332.877 349.609 332.741 349.353 332.741H343.14L345.362 328.366H349.353C349.629 328.366 349.886 328.21 350.014 327.967L351.288 325.449H356.177H359.842L358.696 323.991H350.834H346.389C346.113 323.991 345.856 324.146 345.728 324.389L344.246 327.306L341.283 333.149L338.32 338.993C338.202 339.216 338.221 339.488 338.35 339.702C338.488 339.916 338.725 340.052 338.982 340.052H339.081H346.389H383.615H388.06C388.316 340.052 388.553 339.926 388.692 339.702C388.84 339.479 388.85 339.216 388.731 338.993ZM346.844 325.459H349.629L348.888 326.917H346.103L346.844 325.459ZM346.274 338.584H340.266L342.409 334.209H348.157L346.274 338.584Z"
       fill="#00A54C"
       id="path119" />
    <path
       d="M364.266 297.167C357.53 297.167 352.049 302.563 352.049 309.193C352.049 311.186 352.553 313.16 353.511 314.91L363.605 332.848C363.743 333.091 363.99 333.237 364.276 333.237C364.553 333.237 364.81 333.091 364.948 332.848L375.032 314.9C375.99 313.16 376.494 311.186 376.494 309.193C376.484 302.563 371.002 297.167 364.266 297.167ZM373.679 314.181L364.266 330.933L354.864 314.181C354.024 312.654 353.58 310.934 353.58 309.184C353.58 303.379 358.37 298.664 364.266 298.664C370.163 298.664 374.963 303.389 374.963 309.193C374.963 310.934 374.518 312.654 373.679 314.181Z"
       fill="#00A54C"
       id="path121" />
    <path
       d="M364.266 303.175C360.898 303.175 358.163 305.868 358.163 309.183C358.163 312.499 360.898 315.192 364.266 315.192C367.634 315.192 370.37 312.499 370.37 309.183C370.37 305.868 367.634 303.175 364.266 303.175ZM364.266 313.695C361.738 313.695 359.684 311.672 359.684 309.183C359.684 306.694 361.738 304.672 364.266 304.672C366.795 304.672 368.849 306.694 368.849 309.183C368.849 311.672 366.795 313.695 364.266 313.695Z"
       fill="#00A54C"
       id="path123" />
  </g>
  <g
     clip-path="url(#clip2)"
     id="g145">
    <path
       d="M106.512 91.7215V91.8715H106.662H126.451C126.907 91.8715 127.271 92.2354 127.271 92.6913C127.271 104.59 117.6 114.28 105.692 114.28C93.7844 114.28 84.1041 104.59 84.1041 92.6913C84.1041 80.7833 93.7844 71.103 105.692 71.103C106.148 71.103 106.512 71.4669 106.512 71.9229V91.7215ZM104.873 72.9123V72.7548L104.715 72.7625C94.1633 73.2758 85.7438 82.021 85.7438 92.6913C85.7438 103.687 94.6963 112.64 105.692 112.64C116.363 112.64 125.098 104.21 125.611 93.6587L125.619 93.5014H125.462H105.692C105.236 93.5014 104.873 93.1375 104.873 92.6816V72.9123Z"
       fill="#00A54C"
       stroke="#00A54C"
       stroke-width="0.3"
       id="path131" />
    <path
       d="M111.626 87.596L127.889 71.3328"
       stroke="#00A54C"
       stroke-width="1.7"
       id="path133" />
    <path
       d="M131.989 76.063L120.13 87.909"
       stroke="#00A54C"
       stroke-width="1.7"
       id="path135" />
    <path
       d="M134.476 82.3694L128.901 87.9446"
       stroke="#00A54C"
       stroke-width="1.7"
       id="path137" />
    <path
       d="M123.169 67.4549L111.063 79.5604"
       stroke="#00A54C"
       stroke-width="1.7"
       id="path139" />
    <path
       d="M111.046 70.9754L117.162 64.8687"
       stroke="#00A54C"
       stroke-width="1.7"
       id="path141" />
    <path
       d="M110.982 87.9395V64C125.151 64.5506 134.829 75.1558 135.189 87.9395H110.982Z"
       stroke="#00A54C"
       stroke-width="1.7"
       id="path143" />
  </g>
  <g
     clip-path="url(#clip3)"
     id="g163">
    <path
       d="M360.984 80.594L360.51 74.8148C360.479 74.4369 360.168 74.1462 359.795 74.1462H359.077V73.4169C359.077 72.2107 358.112 71.2294 356.925 71.2294C355.737 71.2294 354.772 72.2107 354.772 73.4169V74.1462H354.054C353.686 74.1462 353.377 74.43 353.34 74.8028L352.766 80.6362C352.746 80.8413 352.812 81.0454 352.948 81.1981C353.084 81.3508 353.277 81.4379 353.48 81.4379H360.273C360.274 81.4379 360.274 81.4379 360.275 81.4379C360.671 81.4379 360.993 81.1115 360.993 80.7088C360.993 80.6698 360.99 80.6314 360.984 80.594ZM356.207 73.4169C356.207 73.0148 356.529 72.6878 356.925 72.6878C357.32 72.6878 357.642 73.0148 357.642 73.4169V74.1462H356.207V73.4169ZM354.273 79.9797L354.704 75.6046H359.135L359.493 79.9797H354.273Z"
       fill="#00A54C"
       id="path147" />
    <path
       d="M380.026 72.8579C380.024 72.8401 380.021 72.8228 380.018 72.8055C380.017 72.7994 380.017 72.7931 380.016 72.7871C380.012 72.7665 380.006 72.7463 380.001 72.7262C380 72.7236 379.999 72.7208 379.999 72.7182C379.992 72.6978 379.985 72.6778 379.977 72.6582C379.977 72.6559 379.976 72.6535 379.975 72.6512C379.967 72.6324 379.959 72.6141 379.949 72.5963C379.948 72.5931 379.946 72.5898 379.945 72.5867C379.936 72.5701 379.926 72.554 379.916 72.5381C379.914 72.5339 379.911 72.5296 379.909 72.5254C379.899 72.5102 379.888 72.4957 379.877 72.4813C379.873 72.477 379.87 72.4723 379.867 72.468C379.852 72.4496 379.836 72.4319 379.82 72.415L374.079 66.5819C374.063 66.565 374.045 66.549 374.027 66.5338C374.022 66.5299 374.017 66.5266 374.013 66.5228C373.999 66.512 373.985 66.5012 373.971 66.4913C373.966 66.4882 373.961 66.4857 373.957 66.4828C373.942 66.473 373.926 66.4632 373.91 66.4546C373.907 66.4527 373.903 66.4512 373.9 66.4493C373.882 66.4403 373.865 66.4316 373.847 66.424C373.844 66.4229 373.842 66.4221 373.839 66.4212C373.82 66.4134 373.801 66.4061 373.781 66.4C373.778 66.3991 373.775 66.3985 373.772 66.3977C373.753 66.392 373.733 66.3866 373.713 66.3826C373.707 66.3813 373.701 66.3808 373.695 66.3797C373.678 66.3767 373.661 66.3737 373.643 66.372C373.62 66.3694 373.596 66.3682 373.572 66.3682H347.739C347.343 66.3682 347.021 66.6946 347.021 67.0973V111.186C347.021 111.589 347.343 111.915 347.739 111.915H364.005C364.401 111.915 364.722 111.589 364.722 111.186C364.722 110.783 364.401 110.457 364.005 110.457H348.457V67.8265H372.854V72.9306C372.854 73.3333 373.175 73.6598 373.572 73.6598H378.595V110.457H374.53C374.133 110.457 373.812 110.783 373.812 111.186C373.812 111.589 374.133 111.915 374.53 111.915H379.312C379.708 111.915 380.03 111.589 380.03 111.186V72.9306C380.03 72.9062 380.029 72.8819 380.026 72.8579ZM374.289 72.2014V68.8578L377.58 72.2014H374.289Z"
       fill="#00A54C"
       id="path149" />
    <path
       d="M373.572 87.1249H353.48C353.083 87.1249 352.762 87.4514 352.762 87.8541C352.762 88.2568 353.083 88.5833 353.48 88.5833H373.572C373.968 88.5833 374.289 88.2568 374.289 87.8541C374.289 87.4514 373.968 87.1249 373.572 87.1249Z"
       fill="#00A54C"
       id="path151" />
    <path
       d="M373.572 91.0148H353.48C353.083 91.0148 352.762 91.3412 352.762 91.7439C352.762 92.1466 353.083 92.4731 353.48 92.4731H373.572C373.968 92.4731 374.289 92.1466 374.289 91.7439C374.289 91.3412 373.968 91.0148 373.572 91.0148Z"
       fill="#00A54C"
       id="path153" />
    <path
       d="M373.572 94.9036H353.48C353.083 94.9036 352.762 95.23 352.762 95.6327C352.762 96.0355 353.083 96.3619 353.48 96.3619H373.572C373.968 96.3619 374.289 96.0355 374.289 95.6327C374.289 95.23 373.968 94.9036 373.572 94.9036Z"
       fill="#00A54C"
       id="path155" />
    <path
       d="M362.09 98.7925H353.48C353.083 98.7925 352.762 99.119 352.762 99.5217C352.762 99.9244 353.083 100.251 353.48 100.251H362.09C362.487 100.251 362.808 99.9244 362.808 99.5217C362.808 99.119 362.487 98.7925 362.09 98.7925Z"
       fill="#00A54C"
       id="path157" />
    <path
       d="M374.29 105.841C374.29 103.027 372.037 100.737 369.267 100.737C366.497 100.737 364.244 103.027 364.244 105.841C364.244 107.463 364.993 108.91 366.158 109.846V115.418C366.158 115.426 366.159 115.433 366.159 115.441C366.159 115.456 366.16 115.471 366.161 115.485C366.162 115.496 366.164 115.506 366.165 115.516C366.167 115.53 366.168 115.543 366.171 115.556C366.173 115.567 366.176 115.578 366.178 115.589C366.181 115.601 366.184 115.613 366.188 115.625C366.191 115.637 366.195 115.648 366.199 115.659C366.203 115.67 366.206 115.681 366.211 115.692C366.215 115.704 366.221 115.715 366.226 115.727C366.231 115.737 366.235 115.747 366.24 115.757C366.247 115.769 366.253 115.78 366.26 115.792C366.265 115.801 366.27 115.81 366.276 115.819C366.284 115.831 366.293 115.843 366.301 115.854C366.306 115.861 366.31 115.867 366.315 115.873C366.316 115.875 366.317 115.876 366.318 115.877C366.334 115.897 366.351 115.917 366.369 115.935C366.374 115.94 366.38 115.944 366.385 115.949C366.398 115.962 366.412 115.974 366.426 115.986C366.434 115.993 366.443 115.999 366.452 116.005C366.463 116.014 366.475 116.023 366.487 116.031C366.496 116.037 366.506 116.042 366.515 116.048C366.528 116.055 366.541 116.062 366.554 116.069C366.563 116.074 366.572 116.078 366.581 116.083C366.596 116.089 366.611 116.095 366.626 116.101C366.634 116.104 366.642 116.107 366.651 116.11C366.668 116.116 366.685 116.121 366.703 116.125C366.71 116.127 366.717 116.129 366.724 116.13C366.743 116.135 366.763 116.138 366.782 116.14C366.788 116.141 366.793 116.142 366.799 116.143C366.822 116.145 366.846 116.147 366.87 116.147C366.872 116.147 366.874 116.147 366.876 116.147C366.877 116.147 366.877 116.147 366.878 116.147C366.913 116.147 366.947 116.143 366.981 116.138C366.988 116.137 366.995 116.136 367.002 116.135C367.037 116.129 367.07 116.12 367.102 116.109C367.108 116.107 367.114 116.105 367.12 116.103C367.154 116.09 367.187 116.076 367.219 116.058C367.22 116.057 367.221 116.057 367.223 116.056C367.256 116.037 367.287 116.015 367.317 115.992C367.319 115.99 367.322 115.989 367.324 115.987L369.268 114.407L371.211 115.987C371.213 115.989 371.215 115.99 371.217 115.992C371.247 116.015 371.279 116.037 371.313 116.056C371.314 116.057 371.315 116.057 371.316 116.058C371.347 116.076 371.381 116.09 371.415 116.103C371.421 116.105 371.427 116.107 371.433 116.109C371.465 116.12 371.498 116.129 371.532 116.135C371.54 116.136 371.547 116.137 371.554 116.138C371.588 116.143 371.622 116.147 371.657 116.147C371.658 116.147 371.658 116.147 371.659 116.147C371.661 116.147 371.663 116.147 371.664 116.147C371.688 116.147 371.712 116.145 371.736 116.143C371.741 116.142 371.747 116.141 371.752 116.14C371.772 116.138 371.792 116.135 371.811 116.13C371.818 116.129 371.825 116.127 371.832 116.125C371.849 116.121 371.867 116.116 371.884 116.11C371.892 116.107 371.9 116.104 371.908 116.101C371.924 116.095 371.939 116.089 371.953 116.083C371.963 116.078 371.971 116.074 371.98 116.069C371.994 116.062 372.007 116.055 372.02 116.048C372.029 116.042 372.038 116.037 372.048 116.031C372.06 116.023 372.072 116.014 372.083 116.005C372.092 115.999 372.101 115.993 372.109 115.986C372.123 115.974 372.137 115.962 372.15 115.949C372.155 115.944 372.16 115.94 372.166 115.935C372.184 115.916 372.201 115.897 372.217 115.877C372.218 115.876 372.219 115.875 372.22 115.873C372.225 115.867 372.229 115.861 372.233 115.854C372.242 115.843 372.251 115.831 372.259 115.819C372.264 115.81 372.269 115.801 372.275 115.792C372.282 115.78 372.288 115.769 372.295 115.757C372.3 115.747 372.304 115.737 372.309 115.727C372.314 115.715 372.319 115.704 372.324 115.692C372.329 115.681 372.332 115.67 372.336 115.659C372.34 115.648 372.344 115.637 372.347 115.625C372.351 115.613 372.354 115.601 372.356 115.589C372.359 115.578 372.362 115.567 372.364 115.556C372.366 115.543 372.368 115.529 372.37 115.516C372.371 115.506 372.373 115.496 372.374 115.485C372.375 115.47 372.376 115.456 372.376 115.441C372.376 115.433 372.377 115.426 372.377 115.418L372.377 109.846C373.541 108.91 374.29 107.463 374.29 105.841ZM369.726 112.913C369.726 112.912 369.726 112.912 369.726 112.912L369.716 112.904C369.71 112.9 369.705 112.896 369.7 112.892C369.687 112.882 369.674 112.873 369.661 112.864C369.653 112.859 369.645 112.854 369.637 112.849C369.625 112.842 369.613 112.835 369.601 112.828C369.591 112.823 369.581 112.818 369.571 112.813C369.56 112.808 369.549 112.803 369.538 112.798C369.526 112.794 369.514 112.79 369.503 112.785C369.493 112.782 369.483 112.778 369.473 112.775C369.461 112.771 369.448 112.768 369.435 112.765C369.425 112.763 369.416 112.76 369.406 112.758C369.393 112.756 369.381 112.754 369.368 112.752C369.358 112.751 369.347 112.749 369.336 112.748C369.325 112.747 369.314 112.746 369.302 112.746C369.29 112.745 369.278 112.745 369.266 112.745C369.256 112.745 369.246 112.745 369.236 112.746C369.223 112.746 369.21 112.747 369.196 112.748C369.187 112.749 369.179 112.751 369.17 112.752C369.156 112.754 369.142 112.756 369.128 112.759C369.119 112.76 369.111 112.762 369.103 112.764C369.088 112.768 369.075 112.771 369.061 112.776C369.052 112.778 369.043 112.781 369.034 112.784C369.022 112.789 369.009 112.794 368.996 112.799C368.986 112.803 368.976 112.808 368.966 112.813C368.955 112.818 368.944 112.823 368.934 112.828C368.922 112.835 368.91 112.842 368.898 112.849C368.89 112.854 368.882 112.859 368.873 112.864C368.86 112.873 368.848 112.883 368.835 112.893C368.829 112.897 368.824 112.9 368.819 112.904L368.809 112.912C368.809 112.913 368.809 112.913 368.808 112.913L367.593 113.901V110.653C368.117 110.842 368.68 110.946 369.267 110.946C369.854 110.946 370.417 110.842 370.941 110.653L370.942 113.901L369.726 112.913ZM369.267 109.487C367.289 109.487 365.679 107.852 365.679 105.841C365.679 103.831 367.289 102.196 369.267 102.196C371.246 102.196 372.855 103.831 372.855 105.841C372.855 107.852 371.246 109.487 369.267 109.487Z"
       fill="#00A54C"
       id="path159" />
    <path
       d="M369.267 103.654C368.08 103.654 367.114 104.635 367.114 105.841C367.114 107.048 368.08 108.029 369.267 108.029C370.454 108.029 371.42 107.048 371.42 105.841C371.42 104.635 370.454 103.654 369.267 103.654ZM369.267 106.57C368.871 106.57 368.55 106.243 368.55 105.841C368.55 105.439 368.871 105.112 369.267 105.112C369.663 105.112 369.985 105.439 369.985 105.841C369.985 106.243 369.663 106.57 369.267 106.57Z"
       fill="#00A54C"
       id="path161" />
  </g>
  <defs
     id="defs179">
    <rect
       x="287.90323"
       y="146.83065"
       width="151.62903"
       height="56.620968"
       id="rect24848" />
    <clipPath
       id="clip0">
      <rect
         width="50.569"
         height="49.7789"
         fill="white"
         transform="translate(82.7689 295.404)"
         id="rect167" />
    </clipPath>
    <clipPath
       id="clip1">
      <rect
         width="50.569"
         height="49.7789"
         fill="white"
         transform="translate(338.241 296.194)"
         id="rect170" />
    </clipPath>
    <clipPath
       id="clip2">
      <rect
         width="53"
         height="54"
         fill="white"
         transform="translate(83.9824 61)"
         id="rect173" />
    </clipPath>
    <clipPath
       id="clip3">
      <rect
         width="48.9887"
         height="49.7789"
         fill="white"
         transform="translate(339.031 66.3682)"
         id="rect176" />
    </clipPath>
  </defs>
  <text
     xml:space="preserve"
     style="font-style:normal;font-weight:normal;font-size:40px;line-height:1.25;font-family:sans-serif;fill:#000000;fill-opacity:1;stroke:none"
     x="69.559799"
     y="155"
     id="text2200"><tspan
       sodipodi:role="line"
       id="tspan2198"
       x="69.559799"
       y="155" /></text>
  <text
     xml:space="preserve"
     style="font-style:normal;font-weight:normal;font-size:21.3333px;line-height:1.25;font-family:sans-serif;text-align:center;text-anchor:middle;fill:#ffffff;fill-opacity:1;stroke:none"
     x="118.74899"
     y="160.26613"
     id="text4403"><tspan
       sodipodi:role="line"
       x="118.749"
       y="160.26613"
       id="tspan6639"
       style="font-style:italic;font-variant:normal;font-weight:normal;font-stretch:normal;font-size:21.3333px;font-family:sans-serif;-inkscape-font-specification:'sans-serif Italic';text-align:center;text-anchor:middle;fill:#ffffff">Window -  25% всіх</tspan><tspan
       sodipodi:role="line"
       x="118.74899"
       y="186.93275"
       id="tspan6643"
       style="font-style:italic;font-variant:normal;font-weight:normal;font-stretch:normal;font-size:21.3333px;font-family:sans-serif;-inkscape-font-specification:'sans-serif Italic';text-align:center;text-anchor:middle;fill:#ffffff">вікон України</tspan></text>
  <text
     xml:space="preserve"
     id="text24846"
     style="font-style:italic;font-variant:normal;font-weight:normal;font-stretch:normal;font-size:12.7258px;line-height:1.25;font-family:sans-serif;-inkscape-font-specification:'sans-serif Italic';text-align:center;white-space:pre;shape-inside:url(#rect24848);fill:#ffffff;fill-opacity:1;stroke:none"
     transform="matrix(1.3674417,0,0,1.8448437,-133.31175,-129.93691)"
     x="0"
     y="0"><tspan
       x="288.83875"
       y="158.44021"
       id="tspan2216">Гарантія на продукцію </tspan><tspan
       x="336.26845"
       y="174.34747"
       id="tspan2218">10 років</tspan></text>
  <text
     xml:space="preserve"
     style="font-style:normal;font-weight:normal;font-size:21.3333px;line-height:1.25;font-family:sans-serif;text-align:center;text-anchor:middle;fill:#000000;fill-opacity:1;stroke:none"
     x="110.88411"
     y="385.79031"
     id="text56257"><tspan
       sodipodi:role="line"
       id="tspan56255"
       x="110.88411"
       y="385.79031"
       style="font-style:italic;font-variant:normal;font-weight:normal;font-stretch:normal;font-size:21.3333px;font-family:sans-serif;-inkscape-font-specification:'sans-serif Italic';text-align:center;text-anchor:middle;fill:#ffffff">Доставка </tspan><tspan
       sodipodi:role="line"
       x="110.88411"
       y="412.45694"
       id="tspan57579"
       style="font-style:italic;font-variant:normal;font-weight:normal;font-stretch:normal;font-size:21.3333px;font-family:sans-serif;-inkscape-font-specification:'sans-serif Italic';text-align:center;text-anchor:middle;fill:#ffffff">по всій Україні</tspan></text>
  <text
     xml:space="preserve"
     style="font-style:normal;font-weight:normal;font-size:21.3333px;line-height:1.25;font-family:sans-serif;text-align:center;text-anchor:middle;fill:#ffffff;fill-opacity:1;stroke:none"
     x="357.55511"
     y="385.87094"
     id="text67987"><tspan
       sodipodi:role="line"
       id="tspan67985"
       x="357.55511"
       y="385.87094"
       style="font-style:italic;font-variant:normal;font-weight:normal;font-stretch:normal;font-size:21.3333px;font-family:sans-serif;-inkscape-font-specification:'sans-serif Italic';text-align:center;text-anchor:middle;fill:#ffffff">Більше 100 точок</tspan><tspan
       sodipodi:role="line"
       x="357.55511"
       y="412.53757"
       id="tspan68373"
       style="font-style:italic;font-variant:normal;font-weight:normal;font-stretch:normal;font-size:21.3333px;font-family:sans-serif;-inkscape-font-specification:'sans-serif Italic';text-align:center;text-anchor:middle;fill:#ffffff">продажу в Україні</tspan></text>
</svg>
